<svg width="32" height="32" viewBox="0 0 32 32" fill="none" xmlns="http://www.w3.org/2000/svg">
<path d="M8.46803 23.532C7.84406 22.908 7.84406 21.8964 8.46803 21.2724L21.2724 8.46798C21.8964 7.84401 22.9081 7.84401 23.532 8.46798C24.156 9.09195 24.156 10.1036 23.532 10.7276L10.7276 23.532C10.1037 24.156 9.092 24.156 8.46803 23.532Z" fill="#D9D9D9"/>
<path d="M23.532 23.532C22.908 24.156 21.8964 24.156 21.2724 23.532L8.46798 10.7276C7.84401 10.1036 7.84401 9.09197 8.46798 8.468C9.09195 7.84403 10.1036 7.84403 10.7276 8.468L23.532 21.2724C24.156 21.8964 24.156 22.908 23.532 23.532Z" fill="#D9D9D9"/>
</svg>
