<svg width="32" height="32" viewBox="0 0 32 32" fill="none" xmlns="http://www.w3.org/2000/svg">
<path d="M30.2338 0H1.76622C1.29779 0 0.848545 0.186084 0.517314 0.517314C0.186084 0.848545 0 1.29779 0 1.76622V30.2342C0.000117855 30.7026 0.186254 31.1517 0.517472 31.4828C0.84869 31.814 1.29787 32 1.76622 32H17.092V19.608H12.9218V14.7787H17.092V11.2169C17.092 7.08356 19.6164 4.83333 23.3036 4.83333C25.0698 4.83333 26.5876 4.96444 27.0302 5.02356V9.34311L24.4729 9.34445C22.4676 9.34445 22.0796 10.2973 22.0796 11.6956V14.7791H26.8618L26.2391 19.6084H22.0796V32H30.2342C30.7026 31.9999 31.1517 31.8137 31.4828 31.4825C31.814 31.1513 32 30.7021 32 30.2338V1.76622C32 1.29779 31.8139 0.848545 31.4827 0.517314C31.1515 0.186084 30.7022 0 30.2338 0Z" fill="#4267B2"/>
</svg>
