<svg width="128" height="32" viewBox="0 0 128 32" fill="none" xmlns="http://www.w3.org/2000/svg">
<path d="M30.2338 0H1.76622C1.29779 0 0.848545 0.186084 0.517314 0.517314C0.186084 0.848545 0 1.29779 0 1.76622V30.2342C0.000117855 30.7026 0.186254 31.1517 0.517472 31.4828C0.84869 31.814 1.29787 32 1.76622 32H17.092V19.608H12.9218V14.7787H17.092V11.2169C17.092 7.08356 19.6164 4.83333 23.3036 4.83333C25.0698 4.83333 26.5876 4.96444 27.0302 5.02356V9.34311L24.4729 9.34445C22.4676 9.34445 22.0796 10.2973 22.0796 11.6956V14.7791H26.8618L26.2391 19.6084H22.0796V32H30.2342C30.7026 31.9999 31.1517 31.8137 31.4828 31.4825C31.814 31.1513 32 30.7021 32 30.2338V1.76622C32 1.29779 31.8139 0.848545 31.4827 0.517314C31.1515 0.186084 30.7022 0 30.2338 0Z" fill="#4267B2"/>
<path d="M64 12.19C63.2465 12.1903 62.51 12.414 61.8837 12.8328C61.2573 13.2516 60.7692 13.8468 60.481 14.543C60.1929 15.2392 60.1176 16.0052 60.2648 16.7442C60.412 17.4831 60.775 18.1619 61.3079 18.6946C61.8408 19.2273 62.5196 19.59 63.2587 19.7369C63.9977 19.8838 64.7637 19.8083 65.4598 19.5198C66.1559 19.2314 66.7508 18.7431 67.1694 18.1166C67.588 17.4901 67.8114 16.7535 67.8114 16C67.8107 14.9895 67.4088 14.0206 66.6942 13.3063C65.9795 12.5919 65.0105 12.1904 64 12.19ZM72.9079 9.26143C72.7139 8.76989 72.421 8.32344 72.0474 7.94979C71.6737 7.57614 71.2273 7.28325 70.7357 7.08929C69.2357 6.49714 65.6643 6.63 64 6.63C62.3357 6.63 58.7679 6.49214 57.2636 7.08929C56.772 7.28325 56.3256 7.57614 55.9519 7.94979C55.5783 8.32344 55.2854 8.76989 55.0914 9.26143C54.5 10.7614 54.6321 14.3364 54.6321 15.9993C54.6321 17.6621 54.5 21.2329 55.0943 22.7379C55.2882 23.2294 55.5811 23.6758 55.9548 24.0495C56.3284 24.4232 56.7749 24.716 57.2664 24.91C58.7664 25.5021 62.3379 25.3693 64.0029 25.3693C65.6679 25.3693 69.2343 25.5071 70.7386 24.91C71.2301 24.716 71.6766 24.4232 72.0502 24.0495C72.4239 23.6758 72.7168 23.2294 72.9107 22.7379C73.5071 21.2379 73.37 17.6629 73.37 16C73.37 14.3371 73.5071 10.7671 72.9107 9.26214L72.9079 9.26143ZM64 21.8571C62.8416 21.8571 61.7091 21.5136 60.7459 20.87C59.7827 20.2264 59.032 19.3117 58.5887 18.2414C58.1454 17.1712 58.0294 15.9935 58.2554 14.8573C58.4814 13.7212 59.0392 12.6775 59.8584 11.8584C60.6775 11.0392 61.7212 10.4814 62.8573 10.2554C63.9935 10.0294 65.1712 10.1454 66.2414 10.5887C67.3117 11.032 68.2264 11.7827 68.87 12.7459C69.5136 13.7091 69.8571 14.8416 69.8571 16C69.8581 16.7694 69.7072 17.5315 69.4132 18.2425C69.1192 18.9536 68.6878 19.5996 68.1437 20.1437C67.5996 20.6878 66.9536 21.1192 66.2425 21.4132C65.5315 21.7072 64.7694 21.8581 64 21.8571ZM70.0986 11.2643C69.8281 11.2644 69.5638 11.1844 69.3388 11.0342C69.1139 10.8841 68.9386 10.6706 68.835 10.4208C68.7314 10.171 68.7042 9.89611 68.7569 9.63087C68.8096 9.36562 68.9397 9.12195 69.1309 8.93068C69.3221 8.73941 69.5657 8.60913 69.8309 8.55632C70.0961 8.50351 70.371 8.53055 70.6209 8.634C70.8707 8.73745 71.0843 8.91268 71.2345 9.13753C71.3848 9.36237 71.465 9.62672 71.465 9.89714C71.4658 10.0767 71.431 10.2547 71.3629 10.4208C71.2947 10.587 71.1944 10.738 71.0677 10.8653C70.941 10.9926 70.7904 11.0936 70.6246 11.1625C70.4588 11.2315 70.281 11.2671 70.1014 11.2671L70.0986 11.2643ZM76.5714 0H51.4286C50.5193 0 49.6472 0.361224 49.0042 1.00421C48.3612 1.64719 48 2.51926 48 3.42857V28.5714C48 29.4807 48.3612 30.3528 49.0042 30.9958C49.6472 31.6388 50.5193 32 51.4286 32H76.5714C77.4807 32 78.3528 31.6388 78.9958 30.9958C79.6388 30.3528 80 29.4807 80 28.5714V3.42857C80 2.51926 79.6388 1.64719 78.9958 1.00421C78.3528 0.361224 77.4807 0 76.5714 0ZM75.3486 20.7143C75.2564 22.545 74.8386 24.1671 73.5021 25.5C72.1657 26.8329 70.545 27.2593 68.7164 27.3464C66.83 27.4529 61.1743 27.4529 59.2879 27.3464C57.4571 27.2543 55.8407 26.8357 54.5021 25.5C53.1636 24.1643 52.7429 22.5414 52.6557 20.7143C52.5493 18.8271 52.5493 13.1707 52.6557 11.2857C52.7479 9.455 53.1607 7.83286 54.5021 6.5C55.8436 5.16714 57.4643 4.74571 59.2879 4.65857C61.1743 4.55214 66.83 4.55214 68.7164 4.65857C70.5471 4.75071 72.1686 5.16929 73.5021 6.505C74.8357 7.84071 75.2614 9.46357 75.3486 11.2943C75.455 13.1743 75.455 18.8257 75.3486 20.7143Z" fill="#E1306C"/>
<path d="M126.72 0H97.28C96.572 0 96 0.572 96 1.28V30.72C96 31.428 96.572 32 97.28 32H126.72C127.428 32 128 31.428 128 30.72V1.28C128 0.572 127.428 0 126.72 0ZM120.612 11.588C120.624 11.776 120.624 11.972 120.624 12.164C120.624 18.036 116.152 24.8 107.98 24.8C105.46 24.8 103.124 24.068 101.156 22.808C101.516 22.848 101.86 22.864 102.228 22.864C104.308 22.864 106.22 22.16 107.744 20.968C105.792 20.928 104.152 19.648 103.592 17.888C104.276 17.988 104.892 17.988 105.596 17.808C104.591 17.6038 103.688 17.0579 103.039 16.2631C102.391 15.4683 102.038 14.4736 102.04 13.448V13.392C102.628 13.724 103.32 13.928 104.044 13.956C103.435 13.5504 102.936 13.0008 102.591 12.3561C102.245 11.7114 102.064 10.9914 102.064 10.26C102.064 9.432 102.28 8.676 102.668 8.02C103.784 9.39334 105.176 10.5166 106.754 11.3167C108.332 12.1168 110.061 12.5758 111.828 12.664C111.2 9.644 113.456 7.2 116.168 7.2C117.448 7.2 118.6 7.736 119.412 8.6C120.416 8.412 121.376 8.036 122.232 7.532C121.9 8.56 121.204 9.428 120.28 9.976C121.176 9.88 122.04 9.632 122.84 9.284C122.236 10.172 121.48 10.96 120.612 11.588Z" fill="#1DA1F2"/>
</svg>
